<?xml version="1.0" encoding="UTF-8"?><svg id="a" xmlns="http://www.w3.org/2000/svg" viewBox="0 0 559.62 311.47"><defs><style>.b{fill:#fff24e;}</style></defs><path class="b" d="M543.7,1.12c.22,.45,.32,1.06,.29,1.9-.33,8.73-12.17,16.64-15.67,23.63-8.57,14.27-10.78,21.89-15.37,32.73-9.38,22.15-3.54,48.76,6.96,70.54,11.16,23.15,30.67,42.35,37.1,67.23,5.94,22.99,.99,47.32-7.42,69.04-7.28,18.8-14.47,45.5-38.65,45.28-40.08-.35-80.18,.14-120.26-.03-12.03-.05-24.07-.11-36.1-.15-9-.03-17.99-.06-26.99-.11-77.58,0-155.29,.15-232.84-1.26-29.68-.54-59.41,0-89.09,0V.93c79.73,0,159.44,.08,239.17-.09L487.16,.33l32.63-.07c5.64-.01,11.28-.02,16.92-.04,3.41,0,6.12-.9,6.99,.89Z"/></svg>