<?xml version="1.0" encoding="UTF-8"?><svg id="a" xmlns="http://www.w3.org/2000/svg" viewBox="0 0 1024.49 576.04"><defs><style>.b{fill:#fff24e;}</style></defs><path class="b" d="M29.44,2.07c-.4,.83-.59,1.96-.53,3.51,.6,16.15,22.51,30.78,28.97,43.7,15.84,26.39,19.93,40.48,28.42,60.53,17.35,40.96,6.55,90.17-12.87,130.45-20.64,42.81-56.73,78.32-68.61,124.34-10.98,42.52-1.83,87.52,13.72,127.68,13.46,34.76,26.76,84.14,71.48,83.75,74.12-.65,148.29,.27,222.42-.06,22.25-.1,44.51-.2,66.76-.27,16.64-.06,33.27-.12,49.91-.19,143.47,0,287.19,.28,430.61-2.32,54.88-1,109.87,0,164.77,0V1.71c-147.45,0-294.87,.14-442.32-.16L134,.61l-60.34-.13c-10.43-.02-20.86-.04-31.29-.07-6.31-.02-11.32-1.66-12.92,1.65Z"/></svg>