<?xml version="1.0" encoding="UTF-8"?><svg id="a" xmlns="http://www.w3.org/2000/svg" viewBox="0 0 490.21 122.56"><defs><style>.b{fill:#fff;}.c{fill:#040000;}.d{fill:#f1f094;}</style></defs><rect class="d" x="60.42" width="429.79" height="122.56"/><g><circle class="c" cx="60.42" cy="61.28" r="60.42"/><circle class="b" cx="60.42" cy="61.28" r="49.85"/><path class="c" d="M24.59,87.11c-2.02-.81-3.36-1.8-3.08-2.25,6.01-.86,7.49-2.12,10.52-6.51,6.34-9.21,8.27-22.17,8.25-32.93,0-7.4-.97-8.65,6.5-6.18,4.85,1.6,8.87,5.06,8.87,7.58,0,.42-.62,1.31-1.48,2.12-1.34,1.26-1.51,1.61-1.86,3.74-2.96,11.85-6.76,26.85-17.93,33.56-2.96,1.57-6.61,2-9.8,.86h0Zm48.1-9.91c-4.55-14.51-3.5-30.1-7.14-44.77-1.38-4.82-4.25-8.75-7.43-10.2-1.74-.79-5.67-1.01-8.4-.47-3.7,.73-.98-2.65,4.24-5.24,4.95-2.4,12.3-1.58,16.67,1.53,4.43,3.24,6.07,6.07,7.41,12.84,3.69,18.62,7.36,29.98,11.43,35.38,3.68,4.88,9.25,6.77,13.41,4.56,1.88-1,2.52-.88,2.52,.47,0,1.56-1.58,6.57-2.9,9.21-3.81,7.43-8.43,12.32-16.03,11.5-7.89-.93-12.21-10.03-13.76-14.81h0Z"/></g></svg>